<svg id="visual" viewBox="0 0 900 600" width="900" height="600" xmlns="http://www.w3.org/2000/svg" xmlns:xlink="http://www.w3.org/1999/xlink" version="1.1"><rect x="0" y="0" width="900" height="600" fill="#00000000"></rect><path d="M620 0L542 0L542 40L559 40L559 80L565 80L565 120L597 120L597 160L580 160L580 200L634 200L634 240L536 240L536 280L576 280L576 320L569 320L569 360L545 360L545 400L572 400L572 440L580 440L580 480L595 480L595 520L632 520L632 560L581 560L581 600L0 600L0 560L0 560L0 520L0 520L0 480L0 480L0 440L0 440L0 400L0 400L0 360L0 360L0 320L0 320L0 280L0 280L0 240L0 240L0 200L0 200L0 160L0 160L0 120L0 120L0 80L0 80L0 40L0 40L0 0L0 0Z" fill="#22314633"></path><path d="M540 0L520 0L520 40L505 40L505 80L507 80L507 120L544 120L544 160L551 160L551 200L459 200L459 240L504 240L504 280L499 280L499 320L488 320L488 360L562 360L562 400L534 400L534 440L504 440L504 480L560 480L560 520L557 520L557 560L478 560L478 600L0 600L0 560L0 560L0 520L0 520L0 480L0 480L0 440L0 440L0 400L0 400L0 360L0 360L0 320L0 320L0 280L0 280L0 240L0 240L0 200L0 200L0 160L0 160L0 120L0 120L0 80L0 80L0 40L0 40L0 0L0 0Z" fill="#1d304c33"></path><path d="M460 0L456 0L456 40L414 40L414 80L426 80L426 120L390 120L390 160L396 160L396 200L450 200L450 240L387 240L387 280L452 280L452 320L444 320L444 360L478 360L478 400L384 400L384 440L477 440L477 480L432 480L432 520L413 520L413 560L425 560L425 600L0 600L0 560L0 560L0 520L0 520L0 480L0 480L0 440L0 440L0 400L0 400L0 360L0 360L0 320L0 320L0 280L0 280L0 240L0 240L0 200L0 200L0 160L0 160L0 120L0 120L0 80L0 80L0 40L0 40L0 0L0 0Z" fill="#182f5233"></path><path d="M329 0L358 0L358 40L331 40L331 80L340 80L340 120L359 120L359 160L329 160L329 200L358 200L358 240L392 240L392 280L390 280L390 320L349 320L349 360L361 360L361 400L348 400L348 440L360 440L360 480L382 480L382 520L363 520L363 560L364 560L364 600L0 600L0 560L0 560L0 520L0 520L0 480L0 480L0 440L0 440L0 400L0 400L0 360L0 360L0 320L0 320L0 280L0 280L0 240L0 240L0 200L0 200L0 160L0 160L0 120L0 120L0 80L0 80L0 40L0 40L0 0L0 0Z" fill="#142d5833"></path><path d="M281 0L300 0L300 40L304 40L304 80L283 80L283 120L275 120L275 160L248 160L248 200L261 200L261 240L277 240L277 280L263 280L263 320L262 320L262 360L284 360L284 400L255 400L255 440L294 440L294 480L277 480L277 520L301 520L301 560L252 560L252 600L0 600L0 560L0 560L0 520L0 520L0 480L0 480L0 440L0 440L0 400L0 400L0 360L0 360L0 320L0 320L0 280L0 280L0 240L0 240L0 200L0 200L0 160L0 160L0 120L0 120L0 80L0 80L0 40L0 40L0 0L0 0Z" fill="#132b5d33"></path><path d="M212 0L176 0L176 40L179 40L179 80L206 80L206 120L186 120L186 160L175 160L175 200L215 200L215 240L205 240L205 280L182 280L182 320L163 320L163 360L185 360L185 400L203 400L203 440L181 440L181 480L195 480L195 520L164 520L164 560L186 560L186 600L0 600L0 560L0 560L0 520L0 520L0 480L0 480L0 440L0 440L0 400L0 400L0 360L0 360L0 320L0 320L0 280L0 280L0 240L0 240L0 200L0 200L0 160L0 160L0 120L0 120L0 80L0 80L0 40L0 40L0 0L0 0Z" fill="#15286233"></path><path d="M103 0L110 0L110 40L136 40L136 80L127 80L127 120L125 120L125 160L121 160L121 200L112 200L112 240L117 240L117 280L128 280L128 320L107 320L107 360L93 360L93 400L96 400L96 440L123 440L123 480L100 480L100 520L107 520L107 560L114 560L114 600L0 600L0 560L0 560L0 520L0 520L0 480L0 480L0 440L0 440L0 400L0 400L0 360L0 360L0 320L0 320L0 280L0 280L0 240L0 240L0 200L0 200L0 160L0 160L0 120L0 120L0 80L0 80L0 40L0 40L0 0L0 0Z" fill="#1b246633"></path></svg>