<svg id="visual" viewBox="0 0 900 600" width="900" height="600" xmlns="http://www.w3.org/2000/svg" xmlns:xlink="http://www.w3.org/1999/xlink" version="1.1"><rect width="900" height="600" fill="#00000000"></rect><g><g transform="translate(424 554)"><path d="M0 -57.1L49.4 -28.5L49.4 28.5L0 57.1L-49.4 28.5L-49.4 -28.5Z" fill="none" stroke="#112e7d" stroke-width="2"></path></g><g transform="translate(112 102)"><path d="M0 -16L13.9 -8L13.9 8L0 16L-13.9 8L-13.9 -8Z" fill="none" stroke="#112e7d" stroke-width="2"></path></g><g transform="translate(480 279)"><path d="M0 -30L26 -15L26 15L0 30L-26 15L-26 -15Z" fill="none" stroke="#112e7d" stroke-width="2"></path></g><g transform="translate(891 411)"><path d="M0 -13L11.3 -6.5L11.3 6.5L0 13L-11.3 6.5L-11.3 -6.5Z" fill="none" stroke="#112e7d" stroke-width="2"></path></g><g transform="translate(743 444)"><path d="M0 -34L29.4 -17L29.4 17L0 34L-29.4 17L-29.4 -17Z" fill="none" stroke="#112e7d" stroke-width="2"></path></g><g transform="translate(321 266)"><path d="M0 -21L18.2 -10.5L18.2 10.5L0 21L-18.2 10.5L-18.2 -10.5Z" fill="none" stroke="#112e7d" stroke-width="2"></path></g><g transform="translate(697 285)"><path d="M0 -7L6.1 -3.5L6.1 3.5L0 7L-6.1 3.5L-6.1 -3.5Z" fill="none" stroke="#112e7d" stroke-width="2"></path></g><g transform="translate(529 129)"><path d="M0 -16L13.9 -8L13.9 8L0 16L-13.9 8L-13.9 -8Z" fill="none" stroke="#112e7d" stroke-width="2"></path></g><g transform="translate(558 484)"><path d="M0 -34L29.4 -17L29.4 17L0 34L-29.4 17L-29.4 -17Z" fill="none" stroke="#112e7d" stroke-width="2"></path></g><g transform="translate(794 584)"><path d="M0 -26L22.5 -13L22.5 13L0 26L-22.5 13L-22.5 -13Z" fill="none" stroke="#112e7d" stroke-width="2"></path></g><g transform="translate(173 508)"><path d="M0 -18L15.6 -9L15.6 9L0 18L-15.6 9L-15.6 -9Z" fill="none" stroke="#112e7d" stroke-width="2"></path></g><g transform="translate(756 151)"><path d="M0 -46L39.8 -23L39.8 23L0 46L-39.8 23L-39.8 -23Z" fill="none" stroke="#112e7d" stroke-width="2"></path></g><g transform="translate(844 270)"><path d="M0 -45L39 -22.5L39 22.5L0 45L-39 22.5L-39 -22.5Z" fill="none" stroke="#112e7d" stroke-width="2"></path></g></g></svg>